<svg width="81" height="80" viewBox="0 0 81 80" fill="none" xmlns="http://www.w3.org/2000/svg">
<path d="M40.3359 62C34.5012 62 28.9054 59.6821 24.7796 55.5563C20.6538 51.4305 18.3359 45.8348 18.3359 40C18.3359 34.1652 20.6538 28.5695 24.7796 24.4437C28.9054 20.3179 34.5012 18 40.3359 18V0C32.4247 0 24.6911 2.34595 18.1131 6.74121C11.5352 11.1365 6.40827 17.3836 3.38077 24.6927C0.353265 32.0017 -0.438863 40.0444 1.10455 47.8036C2.64795 55.5628 6.45757 62.6902 12.0517 68.2843C17.6458 73.8784 24.7731 77.688 32.5323 79.2314C40.2916 80.7748 48.3342 79.9827 55.6433 76.9552C62.9523 73.9277 69.1995 68.8008 73.5947 62.2228C77.99 55.6448 80.3359 47.9112 80.3359 40H62.3359C62.3359 45.8348 60.0181 51.4305 55.8923 55.5563C51.7665 59.6821 46.1707 62 40.3359 62Z" fill="#2354E6"/>
<path d="M62.3359 18H40.3359V40H62.3359V18Z" fill="#17E6A1"/>
</svg>
