<svg width="80" height="65" viewBox="0 0 80 65" fill="none" xmlns="http://www.w3.org/2000/svg">
<path d="M72.6437 12.8736L67.2031 7.50958L45.8238 28.7356H24.751L12.1073 15.9387L15.7088 12.2605L27.0498 23.3717H43.8314L67.2031 0L79.9234 12.7203L55.7088 36.9349L67.7395 48.9655L64.0613 52.6437L48.4291 36.8583L72.6437 12.8736ZM24.3678 29.8851H29.5785L7.35631 52.1073L12.7969 57.5479L34.023 36.3218H45.977L67.2797 57.5479L72.7203 52.1073L60.7663 40.2299L64.3678 36.4751L80 52.1073L67.2797 64.751L43.9081 41.456H36.0919L12.7969 64.751L0 52.1073L19.6168 32.4904L0 12.8736L12.7203 0.153254L29.1188 16.5517L25.364 20.1533L12.7203 7.43295L7.2797 12.7969L24.3678 29.8851ZM33.3333 35.0192L15.7088 52.797L12.0307 49.1188L31.1878 29.8851H46.3602L63.9847 12.3372L67.5862 16.0153L48.5824 35.0958H33.3333V35.0192Z" fill="#0084B5"/>
<path d="M12.7167 9.19531C14.6324 9.19531 16.2416 10.7279 16.2416 12.6436C16.2416 14.5593 14.709 16.1685 12.7933 16.1685C10.8776 16.1685 9.26838 14.6359 9.26838 12.7202C9.19175 10.8045 10.7243 9.19531 12.7167 9.19531Z" fill="#0084B5"/>
<path d="M28.2749 16.0151C30.1906 16.0151 31.7998 17.5477 31.7998 19.54C31.7998 21.5324 30.2672 23.065 28.2749 23.065C26.2825 23.065 24.75 21.5324 24.75 19.54C24.75 17.6243 26.2825 16.0151 28.2749 16.0151Z" fill="#0084B5"/>
<path d="M61.3025 33.8696C63.2182 33.8696 64.8274 35.4022 64.8274 37.3179C64.8274 39.2336 63.2948 40.8428 61.3791 40.8428C59.4634 40.8428 57.8542 39.3102 57.8542 37.3945C57.7776 35.4022 59.3868 33.8696 61.3025 33.8696Z" fill="#0084B5"/>
<path d="M66.9665 9.50195C68.8822 9.50195 70.4148 11.0345 70.4148 12.9502C70.4148 14.8659 68.8822 16.4751 66.9665 16.4751C65.0508 16.4751 63.5183 14.9426 63.5183 13.0269C63.4416 11.0345 65.0508 9.50195 66.9665 9.50195Z" fill="#0084B5"/>
</svg>
